<mxfile host="65bd71144e">
    <diagram id="CQOzAiM4n4nW2hEvO8JB" name="Page-1">
        <mxGraphModel dx="1439" dy="935" grid="1" gridSize="10" guides="1" tooltips="1" connect="1" arrows="1" fold="1" page="1" pageScale="1" pageWidth="850" pageHeight="1100" math="0" shadow="0">
            <root>
                <mxCell id="0"/>
                <mxCell id="1" parent="0"/>
                <mxCell id="2" value="" style="rounded=0;whiteSpace=wrap;html=1;" vertex="1" parent="1">
                    <mxGeometry x="190" y="310" width="970" height="670" as="geometry"/>
                </mxCell>
                <mxCell id="3" value="&amp;nbsp; two column" style="rounded=0;whiteSpace=wrap;html=1;align=left;" vertex="1" parent="1">
                    <mxGeometry x="220" y="375" width="180" height="30" as="geometry"/>
                </mxCell>
                <mxCell id="5" value="" style="triangle;whiteSpace=wrap;html=1;rotation=90;" vertex="1" parent="1">
                    <mxGeometry x="380" y="385" width="7.5" height="10" as="geometry"/>
                </mxCell>
                <mxCell id="7" value="" style="rounded=0;whiteSpace=wrap;html=1;" vertex="1" parent="1">
                    <mxGeometry x="470" y="360" width="660" height="600" as="geometry"/>
                </mxCell>
                <mxCell id="8" value="ex:leftGroup" style="rounded=0;whiteSpace=wrap;html=1;verticalAlign=top;" vertex="1" parent="1">
                    <mxGeometry x="520" y="390" width="340" height="180" as="geometry"/>
                </mxCell>
                <mxCell id="9" value="schema:name" style="rounded=0;whiteSpace=wrap;html=1;fillColor=#dae8fc;strokeColor=#6c8ebf;align=left;spacingLeft=13;" vertex="1" parent="1">
                    <mxGeometry x="530" y="420" width="320" height="40" as="geometry"/>
                </mxCell>
                <mxCell id="10" value="ex:rightGroup" style="rounded=0;whiteSpace=wrap;html=1;verticalAlign=top;" vertex="1" parent="1">
                    <mxGeometry x="900" y="390" width="190" height="80" as="geometry"/>
                </mxCell>
                <mxCell id="11" value="schema:author" style="rounded=0;whiteSpace=wrap;html=1;fillColor=#dae8fc;strokeColor=#6c8ebf;align=left;spacingLeft=13;" vertex="1" parent="1">
                    <mxGeometry x="910" y="420" width="170" height="40" as="geometry"/>
                </mxCell>
                <mxCell id="12" value="schema:keywords" style="rounded=0;whiteSpace=wrap;html=1;fillColor=#dae8fc;strokeColor=#6c8ebf;align=left;spacingLeft=13;" vertex="1" parent="1">
                    <mxGeometry x="530" y="470" width="320" height="40" as="geometry"/>
                </mxCell>
                <mxCell id="13" value="schema:keywords" style="rounded=0;whiteSpace=wrap;html=1;fillColor=#dae8fc;strokeColor=#6c8ebf;align=left;spacingLeft=13;" vertex="1" parent="1">
                    <mxGeometry x="530" y="520" width="320" height="40" as="geometry"/>
                </mxCell>
                <mxCell id="14" value="&amp;nbsp; schema:name" style="rounded=0;whiteSpace=wrap;html=1;align=left;" vertex="1" parent="1">
                    <mxGeometry x="220" y="455" width="180" height="30" as="geometry"/>
                </mxCell>
                <mxCell id="15" value="" style="triangle;whiteSpace=wrap;html=1;rotation=90;" vertex="1" parent="1">
                    <mxGeometry x="380" y="465" width="7.5" height="10" as="geometry"/>
                </mxCell>
                <mxCell id="16" value="schema:name" style="rounded=0;whiteSpace=wrap;html=1;fillColor=#dae8fc;strokeColor=#6c8ebf;" vertex="1" parent="1">
                    <mxGeometry x="220" y="495" width="220" height="40" as="geometry"/>
                </mxCell>
                <mxCell id="20" value="Layout" style="text;html=1;strokeColor=none;fillColor=none;align=left;verticalAlign=middle;whiteSpace=wrap;rounded=0;" vertex="1" parent="1">
                    <mxGeometry x="220" y="345" width="60" height="30" as="geometry"/>
                </mxCell>
                <mxCell id="21" value="Add a new property" style="text;html=1;strokeColor=none;fillColor=none;align=left;verticalAlign=middle;whiteSpace=wrap;rounded=0;" vertex="1" parent="1">
                    <mxGeometry x="220" y="425" width="130" height="30" as="geometry"/>
                </mxCell>
                <mxCell id="26" value="" style="group;rotation=45;" vertex="1" connectable="0" parent="1">
                    <mxGeometry x="832" y="531.25" width="18.11" height="17.5" as="geometry"/>
                </mxCell>
                <mxCell id="24" value="" style="rounded=0;whiteSpace=wrap;html=1;rotation=45;fillColor=#080808;" vertex="1" parent="26">
                    <mxGeometry x="0.27164999999999995" y="2.0124999999999997" width="4.5275" height="17.5" as="geometry"/>
                </mxCell>
                <mxCell id="25" value="" style="rounded=0;whiteSpace=wrap;html=1;rotation=135;fillColor=#000000;" vertex="1" parent="26">
                    <mxGeometry x="0.27164999999999995" y="2.0124999999999997" width="4.5275" height="17.5" as="geometry"/>
                </mxCell>
                <mxCell id="28" value="" style="rounded=0;whiteSpace=wrap;html=1;rotation=135;fillColor=#000000;" vertex="1" parent="1">
                    <mxGeometry x="832.27165" y="480.00250000000005" width="4.5275" height="17.5" as="geometry"/>
                </mxCell>
                <mxCell id="29" value="" style="rounded=0;whiteSpace=wrap;html=1;rotation=45;fillColor=#080808;" vertex="1" parent="1">
                    <mxGeometry x="832.27165" y="480.00250000000005" width="4.5275" height="17.5" as="geometry"/>
                </mxCell>
                <mxCell id="30" value="" style="rounded=0;whiteSpace=wrap;html=1;rotation=135;fillColor=#000000;" vertex="1" parent="1">
                    <mxGeometry x="832.00165" y="431.25250000000005" width="4.5275" height="17.5" as="geometry"/>
                </mxCell>
                <mxCell id="31" value="" style="rounded=0;whiteSpace=wrap;html=1;rotation=45;fillColor=#080808;" vertex="1" parent="1">
                    <mxGeometry x="832.00165" y="431.25250000000005" width="4.5275" height="17.5" as="geometry"/>
                </mxCell>
                <mxCell id="32" value="" style="rounded=0;whiteSpace=wrap;html=1;rotation=135;fillColor=#000000;" vertex="1" parent="1">
                    <mxGeometry x="1060.0016500000002" y="431.25250000000005" width="4.5275" height="17.5" as="geometry"/>
                </mxCell>
                <mxCell id="33" value="" style="rounded=0;whiteSpace=wrap;html=1;rotation=45;fillColor=#080808;" vertex="1" parent="1">
                    <mxGeometry x="1060.0016500000002" y="431.25250000000005" width="4.5275" height="17.5" as="geometry"/>
                </mxCell>
                <mxCell id="35" value="" style="sketch=0;pointerEvents=1;shadow=0;dashed=0;html=1;strokeColor=none;labelPosition=center;verticalLabelPosition=bottom;verticalAlign=top;align=center;fillColor=#505050;shape=mxgraph.mscae.enterprise.settings" vertex="1" parent="1">
                    <mxGeometry x="800" y="531.25" width="20" height="20" as="geometry"/>
                </mxCell>
                <mxCell id="36" value="" style="sketch=0;pointerEvents=1;shadow=0;dashed=0;html=1;strokeColor=none;labelPosition=center;verticalLabelPosition=bottom;verticalAlign=top;align=center;fillColor=#505050;shape=mxgraph.mscae.enterprise.settings" vertex="1" parent="1">
                    <mxGeometry x="800" y="477.5" width="20" height="20" as="geometry"/>
                </mxCell>
                <mxCell id="37" value="" style="sketch=0;pointerEvents=1;shadow=0;dashed=0;html=1;strokeColor=none;labelPosition=center;verticalLabelPosition=bottom;verticalAlign=top;align=center;fillColor=#505050;shape=mxgraph.mscae.enterprise.settings" vertex="1" parent="1">
                    <mxGeometry x="800" y="428.75" width="20" height="20" as="geometry"/>
                </mxCell>
                <mxCell id="38" value="" style="sketch=0;pointerEvents=1;shadow=0;dashed=0;html=1;strokeColor=none;labelPosition=center;verticalLabelPosition=bottom;verticalAlign=top;align=center;fillColor=#505050;shape=mxgraph.mscae.enterprise.settings" vertex="1" parent="1">
                    <mxGeometry x="1030" y="428.75" width="20" height="20" as="geometry"/>
                </mxCell>
            </root>
        </mxGraphModel>
    </diagram>
</mxfile>